<svg id="SvgjsSvg1012" width="5000px" height="1238.259824179127px" xmlns="http://www.w3.org/2000/svg" version="1.1" xmlns:xlink="http://www.w3.org/1999/xlink" xmlns:svgjs="http://svgjs.com/svgjs" viewBox="0 0 415.90625 103"><defs id="SvgjsDefs1013"></defs><g id="SvgjsG1015" transform="rotate(0 50 50)"><svg height="100" viewBox="0 0 80.005859375 80.005859375" xmlns="http://www.w3.org/2000/svg" version="1.1" xmlns:xlink="http://www.w3.org/1999/xlink" xmlns:svgjs="http://svgjs.com/svgjs" preserveAspectRatio="none" width="100" x="0" y="0"><g><svg data-color="1" xmlns="http://www.w3.org/2000/svg" xmlns:xlink="http://www.w3.org/1999/xlink" version="1.1" x="0px" y="0px" viewBox="9.994140625 10 80.005859375 80.005859375" style="enable-background:new 0 0 100 100;" xml:space="preserve" width="80.005859375" height="80.005859375" fill="#000000"><path d="M77.9833984,56.0756836c-2.9243164-2.9243164-6.8125-4.5351562-10.9482422-4.5351562  c-3.7991943,0-7.3797607,1.3731689-10.2058716,3.8616333l-5.4124756-5.4051514l5.3917847-5.3959351  c2.8256836,2.4882812,6.4160156,3.847168,10.215332,3.847168c4.1357422,0,8.0239258-1.6103516,10.9482422-4.5351562  c0.3525391-0.3525391,0.3916016-0.9106445,0.0917969-1.3085938c-1.9052734-2.5288086-4.0164185-4.2529907-6.2965698-5.1949463  c1.7032471-1.9041748,4.477417-6.0124512,3.713562-12.0355225c-0.0576172-0.4521484-0.4135742-0.8085938-0.8662109-0.8662109  c-6.022583-0.7606812-10.1312256,2.0120239-12.0355225,3.7142334c-0.9420166-2.2803955-2.6661987-4.3917847-5.1949463-6.2972412  c-0.3989258-0.300293-0.9575195-0.2607422-1.3085938,0.0917969c-2.9248047,2.9243164-4.5351562,6.8125-4.5351562,10.9482422  c0,3.8022461,1.3613281,7.3950195,3.8535156,10.2226562l-5.392395,5.3962402l-5.4000854-5.3928223  c2.487793-2.8261719,3.8466797-6.4160156,3.8466797-10.2148438c0-4.1357422-1.6103516-8.0239258-4.5351562-10.9482422  c-0.3525391-0.3525391-0.9106445-0.3920898-1.3085938-0.0917969c-2.5289307,1.9053955-4.2531738,4.0165405-5.1950684,6.296814  c-1.9041748-1.7026367-6.012207-4.4758911-12.0354004-3.7138062c-0.4521484,0.0576172-0.8085938,0.4135742-0.8662109,0.8662109  c-0.7642822,6.0233154,2.010376,10.1317139,3.7136841,12.0357666c-2.2802124,0.9420776-4.3913574,2.6661377-6.2966919,5.1947021  c-0.2998047,0.3979492-0.2607422,0.9560547,0.0917969,1.3085938c2.9243164,2.9243164,6.8125,4.5351562,10.9482422,4.5351562  c3.8022461,0,7.3959961-1.3618164,10.2231445-3.8540039l5.4000854,5.3928223l-5.4088745,5.4127197  c-2.8256836-2.4866333-6.4051514-3.8592529-10.203125-3.8592529c-4.1357422,0-8.0239258,1.6103516-10.9482422,4.5351562  c-0.3525391,0.3525391-0.3916016,0.9106445-0.0917969,1.3085938c1.9052734,2.5288086,4.0164185,4.2529907,6.2965698,5.1949463  c-1.7032471,1.9041748-4.477417,6.0124512-3.713562,12.0355225c0.0576172,0.4521484,0.4135742,0.8085938,0.8662109,0.8662109  c0.703125,0.0888672,1.3793945,0.1298828,2.0302734,0.1298828c4.9169922-0.0003662,8.3218994-2.3363037,10.0065308-3.8410034  c0.9423218,2.2792358,2.6660767,4.3895264,5.1936646,6.2941284c0.1791992,0.1347656,0.390625,0.2011719,0.6010742,0.2011719  c0.2578125,0,0.5136719-0.0991211,0.7075195-0.2929688c2.9243164-2.9243164,4.5351562-6.8125,4.5351562-10.9482422  c0-3.8010864-1.3745117-7.3833008-3.8654175-10.210083l5.4092407-5.4134521l5.4118652,5.404541  c-2.4891968,2.826355-3.8634033,6.4077148-3.8634033,10.2077637c0,4.1357422,1.6103516,8.0239258,4.5351562,10.9482422  c0.1938477,0.1938477,0.449707,0.2929688,0.7075195,0.2929688c0.2104492,0,0.4223633-0.0664062,0.6010742-0.2011719  c2.527832-1.904541,4.2515869-4.0146484,5.1938477-6.2937622c1.6845093,1.5048218,5.0892944,3.8406372,10.0073242,3.8406372  c0.6499023,0,1.3271484-0.0410156,2.0292969-0.1298828c0.4521484-0.0576172,0.8085938-0.4135742,0.8662109-0.8662109  c0.7642822-6.0233154-2.010376-10.1317139-3.7136841-12.0357666c2.2802124-0.9420776,4.3913574-2.6661377,6.2966919-5.1947021  C78.375,56.9863281,78.3359375,56.4282227,77.9833984,56.0756836z M75.9125977,43.1044922  c-2.4599609,2.1625977-5.5839844,3.34375-8.8886719,3.34375c-3.2651367,0-6.3525391-1.152832-8.7983398-3.2651367  l0.8623047-0.8632812c0.0146484-0.0141602,0.0532227-0.0532227,0.1118164-0.1152344  c0.703125-0.6508789,4.4936523-3.9331055,9.043457-3.6191406C71.0229492,38.7797852,73.5996094,40.2988281,75.9125977,43.1044922z   M73.574707,26.4140625c0.4099121,5.7493896-2.8685913,9.3258667-3.9499512,10.3411865  c-0.4095459-0.0770264-0.8228149-0.1356201-1.2419434-0.164917c-2.3647461-0.1645508-4.5170898,0.4580078-6.2631836,1.2788086  c0.8208008-1.746582,1.4438477-3.9003906,1.2788086-6.2631836c-0.0293579-0.4191284-0.0879517-0.8324585-0.1650391-1.2420044  C64.2484741,29.2824707,67.8251343,26.0031738,73.574707,26.4140625z M53.5405273,32.9648438  c0-3.3051758,1.1811523-6.4287109,3.34375-8.8886719c2.8007812,2.309082,4.3198242,4.8813477,4.5180664,7.6557617  c0.324707,4.5415039-2.9833984,8.3681641-3.6230469,9.0620117c-0.059082,0.0561523-0.0966797,0.0927734-0.1103516,0.1069336  c-0.0283203,0.0283203-0.0546875,0.0581055-0.0791016,0.0883789l-0.7788086,0.7797852  C54.6953125,39.3222656,53.5405273,36.2319336,53.5405273,32.9648438z M26.4140625,26.425293  c5.7418823-0.411377,9.3242798,2.8687744,10.3411865,3.9500732c-0.0770264,0.4094849-0.1356201,0.8227539-0.164917,1.2418213  c-0.1655273,2.362793,0.4580078,4.5161133,1.2788086,6.2631836c-1.746582-0.8208008-3.9003906-1.4443359-6.2631836-1.2788086  c-0.4191284,0.0293579-0.8323975,0.0879517-1.2419434,0.1650391C29.2827148,35.7515259,26.0040283,32.1748047,26.4140625,26.425293z   M32.9648438,46.4594727c-3.3051758,0-6.4287109-1.1811523-8.8886719-3.34375  c2.309082-2.8007812,4.8813477-4.3198242,7.6557617-4.5180664c4.5449219-0.3227539,8.3681641,2.9833984,9.0620117,3.6235352  c0.0561523,0.0585938,0.0927734,0.0961914,0.1069336,0.1098633c0.0283203,0.0283203,0.0581055,0.0546875,0.0888672,0.0791016  l0.7797852,0.7788086C39.3222656,45.3051758,36.2324219,46.4594727,32.9648438,46.4594727z M43.1831055,41.7744141  l-0.8632812-0.8623047c-0.0141602-0.0146484-0.0532227-0.0527344-0.1152344-0.1118164  c-0.6508789-0.7036133-3.9370117-4.4975586-3.6191406-9.043457c0.1943359-2.7797852,1.7133789-5.3564453,4.519043-7.6694336  c2.1625977,2.4599609,3.34375,5.5839844,3.34375,8.8886719C46.4482422,36.2412109,45.2958984,39.3286133,43.1831055,41.7744141z   M24.0874023,56.8955078c2.4599609-2.1625977,5.5839844-3.34375,8.8886719-3.34375  c3.2640381,0,6.3441162,1.1620483,8.7896118,3.2737427l-0.8540649,0.8546753  c-0.0004883,0.0004883-0.0005493,0.0010986-0.0010376,0.0015869c-0.0151978,0.0147095-0.0524902,0.0524902-0.1102905,0.1136475  c-0.7036133,0.6513672-4.5014648,3.9414062-9.043457,3.6191406C28.9770508,61.2202148,26.4003906,59.7011719,24.0874023,56.8955078z   M26.425293,73.5859375c-0.4099121-5.7493896,2.8685913-9.3258667,3.9499512-10.3411865  c0.4095459,0.0770264,0.8228149,0.1356201,1.2419434,0.164917c2.3623047,0.1655273,4.5166016-0.4584961,6.2631836-1.2788086  c-0.8208008,1.746582-1.4438477,3.9003906-1.2788086,6.2631836c0.0292969,0.4188232,0.0879517,0.8319092,0.164917,1.2411499  C35.7503662,70.71521,32.1693726,73.993103,26.425293,73.5859375z M46.4594727,67.0351562  c0,3.3051758-1.1811523,6.4287109-3.34375,8.8886719c-2.8007812-2.309082-4.3193359-4.8813477-4.5180664-7.6557617  c-0.324707-4.5410156,2.9824219-8.3671875,3.6235352-9.0625c0.059082-0.0556641,0.0961914-0.0922852,0.1098633-0.1064453  c0.0081787-0.0081787,0.0105591-0.0193481,0.0183716-0.02771l0.8310547-0.831604  C45.2954712,60.6864624,46.4594727,63.7684937,46.4594727,67.0351562z M56.8955078,75.9125977  c-2.1625977-2.4599609-3.34375-5.5839844-3.34375-8.8886719c0-3.2663574,1.1637573-6.3484497,3.2783203-8.7947388  l0.8291016,0.8280029c0.008728,0.0093994,0.0119019,0.0216064,0.0209961,0.0307007  c0.0141602,0.0146484,0.0532227,0.0527344,0.1152344,0.1118164c0.6508789,0.7036133,3.9370117,4.4975586,3.6191406,9.043457  C61.2202148,71.0229492,59.7011719,73.5996094,56.8955078,75.9125977z M73.5859375,73.574707  c-5.7507324,0.4092407-9.3259277-2.8679199-10.3412476-3.9494629c0.0770874-0.409668,0.1356812-0.8231812,0.164978-1.2424316  c0.1655273-2.362793-0.4580078-4.5161133-1.2788086-6.2631836c1.746582,0.8203125,3.8999023,1.4453125,6.2631836,1.2788086  c0.4191284-0.0293579,0.8323975-0.0879517,1.2419434-0.1650391C70.7172852,64.2484741,73.9959717,67.8251953,73.5859375,73.574707z   M68.2680664,61.4023438c-4.5341797,0.3310547-8.3666992-2.9824219-9.0625-3.6235352  c-0.0556641-0.059082-0.0922852-0.0961914-0.1064453-0.1098633c-0.000061-0.000061-0.0002441-0.0001221-0.0003052-0.0001831  s-0.0001221-0.0002441-0.0001831-0.0003052l-0.854248-0.8530884c2.4458618-2.1124268,5.5261841-3.2748413,8.7907715-3.2748413  c3.3051758,0,6.4287109,1.1811523,8.8886719,3.34375C73.6147461,59.6850586,71.0424805,61.2036133,68.2680664,61.4023438z"></path><path d="M49.9970703,10C27.9394531,10,9.9941406,27.9453125,9.9941406,50.0029297s17.9453125,40.0029297,40.0029297,40.0029297  S90,72.0605469,90,50.0029297S72.0546875,10,49.9970703,10z M49.9970703,88.0058594  c-20.9550781,0-38.0029297-17.0478516-38.0029297-38.0029297S29.0419922,12,49.9970703,12S88,29.0478516,88,50.0029297  S70.9521484,88.0058594,49.9970703,88.0058594z"></path></svg></g><defs id="SvgjsDefs1014"></defs></svg></g><g id="SvgjsG1017" transform="rotate(0 267.953125 50)"><svg xmlns="http://www.w3.org/2000/svg" xmlns:xlink="http://www.w3.org/1999/xlink" width="295.90625" viewBox="1.7599999904632568 10.369999885559082 295.91998291015625 23.409000396728516" overflow="visible" style="overflow: visible;" transform="" version="1.1" xmlns:svgjs="http://svgjs.com/svgjs" preserveAspectRatio="none" height="23.40625" x="120" y="38.296875" fill="#000000" stroke="none"><path stroke="none" fill="#000000" d="M14.62 33.70L14.62 33.70Q10.69 33.70 7.78 32.18L7.78 32.18L7.78 32.18Q4.86 30.67 3.31 28.08L3.31 28.08L3.31 28.08Q1.76 25.49 1.76 22.28L1.76 22.28L1.76 22.28Q1.76 18.79 3.55 16.09L3.55 16.09L3.55 16.09Q5.33 13.39 8.44 11.88L8.44 11.88L8.44 11.88Q11.56 10.37 15.44 10.37L15.44 10.37L15.44 10.37Q17.17 10.37 18.81 10.69L18.81 10.69L18.81 10.69Q20.45 11.02 21.49 11.56L21.49 11.56L21.49 11.56Q21.78 11.74 21.85 11.88L21.85 11.88L21.85 11.88Q21.92 12.02 21.96 12.38L21.96 12.38L22.43 16.74L22.43 16.74Q22.43 16.85 22.23 16.87L22.23 16.87L22.23 16.87Q22.03 16.88 22.00 16.78L22.00 16.78L22.00 16.78Q21.06 14.11 18.94 12.67L18.94 12.67L18.94 12.67Q16.81 11.23 13.82 11.23L13.82 11.23L13.82 11.23Q9.58 11.23 7.27 13.82L7.27 13.82L7.27 13.82Q4.97 16.42 4.97 20.95L4.97 20.95L4.97 20.95Q4.97 24.48 6.34 27.23L6.34 27.23L6.34 27.23Q7.70 29.99 10.10 31.54L10.10 31.54L10.10 31.54Q12.49 33.08 15.52 33.08L15.52 33.08L15.52 33.08Q17.24 33.08 18.18 32.76L18.18 32.76L18.18 32.76Q19.12 32.44 19.55 31.50L19.55 31.50L19.55 31.50Q19.98 30.56 19.98 28.73L19.98 28.73L19.98 28.73Q19.98 26.86 19.75 26.12L19.75 26.12L19.75 26.12Q19.51 25.38 18.74 25.13L18.74 25.13L18.74 25.13Q17.96 24.88 16.06 24.88L16.06 24.88L16.06 24.88Q15.84 24.88 15.84 24.59L15.84 24.59L15.84 24.59Q15.84 24.48 15.89 24.39L15.89 24.39L15.89 24.39Q15.95 24.30 16.02 24.30L16.02 24.30L16.02 24.30Q18.90 24.48 20.70 24.48L20.70 24.48L20.70 24.48Q22.39 24.48 24.30 24.37L24.30 24.37L24.30 24.37Q24.37 24.37 24.43 24.46L24.43 24.46L24.43 24.46Q24.48 24.55 24.48 24.62L24.48 24.62L24.48 24.62Q24.48 24.88 24.30 24.88L24.30 24.88L24.30 24.88Q23.51 24.84 23.18 25.11L23.18 25.11L23.18 25.11Q22.86 25.38 22.77 26.21L22.77 26.21L22.77 26.21Q22.68 27.04 22.68 29.09L22.68 29.09L22.68 29.09Q22.68 30.71 22.81 31.39L22.81 31.39L22.81 31.39Q22.93 32.08 22.93 32.26L22.93 32.26L22.93 32.26Q22.93 32.47 22.84 32.53L22.84 32.53L22.84 32.53Q22.75 32.58 22.50 32.69L22.50 32.69L22.50 32.69Q18.07 33.70 14.62 33.70L14.62 33.70ZM46.79 32.83L46.79 32.83Q46.97 32.83 46.97 33.05L46.97 33.05L46.97 33.05Q46.97 33.26 46.79 33.26L46.79 33.26L46.79 33.26Q46.11 33.26 44.67 33.19L44.67 33.19L44.67 33.19Q43.16 33.12 42.51 33.12L42.51 33.12L42.51 33.12Q41.97 33.12 40.89 33.19L40.89 33.19L40.89 33.19Q39.88 33.26 39.34 33.26L39.34 33.26L39.34 33.26Q39.20 33.26 39.20 33.05L39.20 33.05L39.20 33.05Q39.20 32.83 39.34 32.83L39.34 32.83L39.34 32.83Q40.24 32.83 40.65 32.60L40.65 32.60L40.65 32.60Q41.07 32.36 41.07 31.86L41.07 31.86L41.07 31.86Q41.07 31.21 40.60 30.24L40.60 30.24L38.26 25.20L33.47 25.20L32.00 28.84L32.00 28.84Q31.38 30.35 31.38 31.14L31.38 31.14L31.38 31.14Q31.38 32.04 32.01 32.44L32.01 32.44L32.01 32.44Q32.64 32.83 33.98 32.83L33.98 32.83L33.98 32.83Q34.16 32.83 34.16 33.05L34.16 33.05L34.16 33.05Q34.16 33.26 33.98 33.26L33.98 33.26L33.98 33.26Q33.44 33.26 32.50 33.19L32.50 33.19L32.50 33.19Q31.49 33.12 30.63 33.12L30.63 33.12L30.63 33.12Q29.73 33.12 28.50 33.19L28.50 33.19L28.50 33.19Q27.42 33.26 26.78 33.26L26.78 33.26L26.78 33.26Q26.60 33.26 26.60 33.05L26.60 33.05L26.60 33.05Q26.60 32.83 26.78 32.83L26.78 32.83L26.78 32.83Q27.89 32.83 28.56 32.51L28.56 32.51L28.56 32.51Q29.22 32.18 29.78 31.30L29.78 31.30L29.78 31.30Q30.34 30.42 31.13 28.51L31.13 28.51L36.39 15.88L36.39 15.88Q36.46 15.73 36.60 15.73L36.60 15.73L36.60 15.73Q36.75 15.73 36.82 15.88L36.82 15.88L42.58 28.33L42.58 28.33Q43.52 30.31 44.09 31.23L44.09 31.23L44.09 31.23Q44.67 32.15 45.26 32.49L45.26 32.49L45.26 32.49Q45.86 32.83 46.79 32.83L46.79 32.83ZM35.70 19.73L33.80 24.44L37.90 24.44L35.70 19.73ZM52.40 19.26L52.40 19.26Q52.40 20.30 52.96 21.10L52.96 21.10L52.96 21.10Q53.52 21.89 54.31 22.41L54.31 22.41L54.31 22.41Q55.10 22.93 56.54 23.69L56.54 23.69L56.54 23.69Q58.02 24.44 58.93 25.06L58.93 25.06L58.93 25.06Q59.85 25.67 60.48 26.59L60.48 26.59L60.48 26.59Q61.11 27.50 61.11 28.76L61.11 28.76L61.11 28.76Q61.11 30.13 60.34 31.27L60.34 31.27L60.34 31.27Q59.56 32.40 58.16 33.05L58.16 33.05L58.16 33.05Q56.76 33.70 54.92 33.70L54.92 33.70L54.92 33.70Q53.55 33.70 52.31 33.35L52.31 33.35L52.31 33.35Q51.07 33.01 50.24 32.44L50.24 32.44L50.24 32.44Q49.95 32.26 49.95 31.72L49.95 31.72L49.63 27.97L49.63 27.97Q49.63 27.83 49.81 27.79L49.81 27.79L49.81 27.79Q49.99 27.76 50.06 27.90L50.06 27.90L50.06 27.90Q50.78 29.99 52.27 31.52L52.27 31.52L52.27 31.52Q53.77 33.05 55.60 33.05L55.60 33.05L55.60 33.05Q56.79 33.05 57.66 32.35L57.66 32.35L57.66 32.35Q58.52 31.64 58.52 30.17L58.52 30.17L58.52 30.17Q58.52 29.02 57.94 28.13L57.94 28.13L57.94 28.13Q57.37 27.25 56.50 26.66L56.50 26.66L56.50 26.66Q55.64 26.06 54.27 25.31L54.27 25.31L54.27 25.31Q52.87 24.55 52.00 23.96L52.00 23.96L52.00 23.96Q51.14 23.36 50.55 22.48L50.55 22.48L50.55 22.48Q49.95 21.60 49.95 20.41L49.95 20.41L49.95 20.41Q49.95 18.36 51.63 17.17L51.63 17.17L51.63 17.17Q53.30 15.98 55.68 15.98L55.68 15.98L55.68 15.98Q57.69 15.98 59.53 16.81L59.53 16.81L59.53 16.81Q59.85 16.96 59.94 17.08L59.94 17.08L59.94 17.08Q60.03 17.21 60.07 17.46L60.07 17.46L60.21 20.66L60.21 20.66Q60.21 20.81 60.03 20.84L60.03 20.84L60.03 20.84Q59.85 20.88 59.78 20.77L59.78 20.77L59.78 20.77Q59.60 19.98 58.97 19.01L58.97 19.01L58.97 19.01Q58.34 18.04 57.31 17.33L57.31 17.33L57.31 17.33Q56.29 16.63 55.03 16.63L55.03 16.63L55.03 16.63Q53.73 16.63 53.07 17.35L53.07 17.35L53.07 17.35Q52.40 18.07 52.40 19.26L52.40 19.26ZM68.88 16.96L68.88 16.96Q67.08 16.96 66.11 17.95L66.11 17.95L66.11 17.95Q65.14 18.94 64.63 21.20L64.63 21.20L64.63 21.20Q64.63 21.28 64.43 21.28L64.43 21.28L64.43 21.28Q64.24 21.28 64.24 21.20L64.24 21.20L64.24 21.20Q64.38 20.09 64.52 18.32L64.52 18.32L64.52 18.32Q64.67 16.56 64.67 15.62L64.67 15.62L64.67 15.62Q64.67 15.44 64.87 15.44L64.87 15.44L64.87 15.44Q65.06 15.44 65.06 15.62L65.06 15.62L65.06 15.62Q65.06 16.09 65.60 16.22L65.60 16.22L65.60 16.22Q66.14 16.34 66.97 16.34L66.97 16.34L66.97 16.34Q70.07 16.42 72.41 16.42L72.41 16.42L75.54 16.38L75.54 16.38Q76.15 16.34 77.20 16.34L77.20 16.34L77.20 16.34Q78.56 16.34 79.19 16.18L79.19 16.18L79.19 16.18Q79.82 16.02 80.00 15.48L80.00 15.48L80.00 15.48Q80.08 15.37 80.26 15.37L80.26 15.37L80.26 15.37Q80.44 15.37 80.44 15.48L80.44 15.48L80.44 15.48Q80.18 20.12 80.18 21.20L80.18 21.20L80.18 21.20Q80.18 21.28 79.99 21.28L79.99 21.28L79.99 21.28Q79.79 21.28 79.79 21.20L79.79 21.20L79.79 21.20Q79.64 19.01 78.71 17.98L78.71 17.98L78.71 17.98Q77.77 16.96 75.94 16.96L75.94 16.96L75.94 16.96Q74.60 16.96 74.17 17.44L74.17 17.44L74.17 17.44Q73.74 17.93 73.74 19.33L73.74 19.33L73.74 30.35L73.74 30.35Q73.74 31.46 73.94 31.97L73.94 31.97L73.94 31.97Q74.14 32.47 74.75 32.65L74.75 32.65L74.75 32.65Q75.36 32.83 76.69 32.83L76.69 32.83L76.69 32.83Q76.76 32.83 76.76 33.05L76.76 33.05L76.76 33.05Q76.76 33.26 76.69 33.26L76.69 33.26L76.69 33.26Q75.50 33.26 74.86 33.23L74.86 33.23L72.34 33.19L69.85 33.23L69.85 33.23Q69.17 33.26 67.98 33.26L67.98 33.26L67.98 33.26Q67.91 33.26 67.91 33.05L67.91 33.05L67.91 33.05Q67.91 32.83 67.98 32.83L67.98 32.83L67.98 32.83Q69.31 32.83 69.92 32.65L69.92 32.65L69.92 32.65Q70.54 32.47 70.77 31.95L70.77 31.95L70.77 31.95Q71.00 31.43 71.00 30.35L71.00 30.35L71.00 19.26L71.00 19.26Q71.00 18.25 70.86 17.78L70.86 17.78L70.86 17.78Q70.72 17.32 70.28 17.14L70.28 17.14L70.28 17.14Q69.85 16.96 68.88 16.96L68.88 16.96ZM102.06 32.83L102.06 32.83Q102.17 32.83 102.17 33.05L102.17 33.05L102.17 33.05Q102.17 33.26 102.06 33.26L102.06 33.26L97.31 33.26L97.31 33.26Q96.74 33.26 95.15 31.10L95.15 31.10L95.15 31.10Q93.57 28.94 91.41 25.16L91.41 25.16L91.41 25.16Q90.65 25.27 89.90 25.27L89.90 25.27L89.90 25.27Q89.14 25.27 88.74 25.24L88.74 25.24L88.74 30.35L88.74 30.35Q88.74 31.46 88.92 31.97L88.92 31.97L88.92 31.97Q89.10 32.47 89.61 32.65L89.61 32.65L89.61 32.65Q90.11 32.83 91.26 32.83L91.26 32.83L91.26 32.83Q91.37 32.83 91.37 33.05L91.37 33.05L91.37 33.05Q91.37 33.26 91.26 33.26L91.26 33.26L91.26 33.26Q90.26 33.26 89.68 33.23L89.68 33.23L87.38 33.19L85.14 33.23L85.14 33.23Q84.53 33.26 83.45 33.26L83.45 33.26L83.45 33.26Q83.38 33.26 83.38 33.05L83.38 33.05L83.38 33.05Q83.38 32.83 83.45 32.83L83.45 32.83L83.45 32.83Q84.60 32.83 85.13 32.65L85.13 32.65L85.13 32.65Q85.65 32.47 85.85 31.95L85.85 31.95L85.85 31.95Q86.04 31.43 86.04 30.35L86.04 30.35L86.04 19.33L86.04 19.33Q86.04 18.25 85.85 17.75L85.85 17.75L85.85 17.75Q85.65 17.24 85.13 17.05L85.13 17.05L85.13 17.05Q84.60 16.85 83.52 16.85L83.52 16.85L83.52 16.85Q83.42 16.85 83.42 16.63L83.42 16.63L83.42 16.63Q83.42 16.42 83.52 16.42L83.52 16.42L85.18 16.45L85.18 16.45Q86.55 16.52 87.38 16.52L87.38 16.52L87.38 16.52Q88.06 16.52 88.62 16.49L88.62 16.49L88.62 16.49Q89.18 16.45 89.57 16.42L89.57 16.42L89.57 16.42Q90.69 16.31 91.70 16.31L91.70 16.31L91.70 16.31Q94.18 16.31 95.49 17.21L95.49 17.21L95.49 17.21Q96.81 18.11 96.81 19.80L96.81 19.80L96.81 19.80Q96.81 21.24 95.96 22.45L95.96 22.45L95.96 22.45Q95.12 23.65 93.64 24.41L93.64 24.41L93.64 24.41Q95.62 27.68 97.01 29.48L97.01 29.48L97.01 29.48Q98.39 31.28 99.58 32.06L99.58 32.06L99.58 32.06Q100.77 32.83 102.06 32.83L102.06 32.83ZM88.74 24.55L88.74 24.55Q89.54 24.62 90.15 24.62L90.15 24.62L90.15 24.62Q92.31 24.62 93.15 23.65L93.15 23.65L93.15 23.65Q94.00 22.68 94.00 20.77L94.00 20.77L94.00 20.77Q94.00 16.88 90.80 16.88L90.80 16.88L90.80 16.88Q89.54 16.88 89.14 17.42L89.14 17.42L89.14 17.42Q88.74 17.96 88.74 19.40L88.74 19.40L88.74 24.55ZM112.53 33.70L112.53 33.70Q110.01 33.70 108.03 32.51L108.03 32.51L108.03 32.51Q106.05 31.32 104.95 29.30L104.95 29.30L104.95 29.30Q103.86 27.29 103.86 24.91L103.86 24.91L103.86 24.91Q103.86 22.14 105.30 20.11L105.30 20.11L105.30 20.11Q106.74 18.07 108.99 17.03L108.99 17.03L108.99 17.03Q111.24 15.98 113.58 15.98L113.58 15.98L113.58 15.98Q116.10 15.98 118.04 17.23L118.04 17.23L118.04 17.23Q119.98 18.47 121.03 20.45L121.03 20.45L121.03 20.45Q122.07 22.43 122.07 24.59L122.07 24.59L122.07 24.59Q122.07 27 120.78 29.11L120.78 29.11L120.78 29.11Q119.48 31.21 117.30 32.45L117.30 32.45L117.30 32.45Q115.12 33.70 112.53 33.70L112.53 33.70ZM113.43 32.94L113.43 32.94Q115.99 32.94 117.52 30.96L117.52 30.96L117.52 30.96Q119.05 28.98 119.05 25.45L119.05 25.45L119.05 25.45Q119.05 23.08 118.26 21.10L118.26 21.10L118.26 21.10Q117.46 19.12 115.95 17.95L115.95 17.95L115.95 17.95Q114.44 16.78 112.35 16.78L112.35 16.78L112.35 16.78Q109.72 16.78 108.28 18.65L108.28 18.65L108.28 18.65Q106.84 20.52 106.84 23.94L106.84 23.94L106.84 23.94Q106.84 26.46 107.67 28.51L107.67 28.51L107.67 28.51Q108.50 30.56 109.99 31.75L109.99 31.75L109.99 31.75Q111.49 32.94 113.43 32.94L113.43 32.94ZM143.92 16.42L143.92 16.42Q143.99 16.42 143.99 16.63L143.99 16.63L143.99 16.63Q143.99 16.85 143.92 16.85L143.92 16.85L143.92 16.85Q142.55 16.85 141.94 17.71L141.94 17.71L141.94 17.71Q141.32 18.58 141.32 20.56L141.32 20.56L141.32 33.66L141.32 33.66Q141.32 33.73 141.14 33.77L141.14 33.77L141.14 33.77Q140.96 33.80 140.89 33.73L140.89 33.73L128.76 19.37L128.47 19.04L128.47 29.12L128.47 29.12Q128.47 31.10 129.05 31.97L129.05 31.97L129.05 31.97Q129.62 32.83 130.99 32.83L130.99 32.83L130.99 32.83Q131.10 32.83 131.10 33.05L131.10 33.05L131.10 33.05Q131.10 33.26 130.99 33.26L130.99 33.26L130.99 33.26Q130.20 33.26 129.77 33.23L129.77 33.23L128.15 33.19L126.56 33.23L126.56 33.23Q126.10 33.26 125.23 33.26L125.23 33.26L125.23 33.26Q125.12 33.26 125.12 33.05L125.12 33.05L125.12 33.05Q125.12 32.83 125.23 32.83L125.23 32.83L125.23 32.83Q126.60 32.83 127.19 31.97L127.19 31.97L127.19 31.97Q127.79 31.10 127.79 29.12L127.79 29.12L127.79 18.29L127.79 18.29Q127.03 17.53 126.40 17.19L126.40 17.19L126.40 17.19Q125.77 16.85 125.12 16.85L125.12 16.85L125.12 16.85Q125.05 16.85 125.05 16.63L125.05 16.63L125.05 16.63Q125.05 16.42 125.12 16.42L125.12 16.42L127.14 16.45L127.14 16.45Q127.50 16.45 127.97 16.43L127.97 16.43L127.97 16.43Q128.44 16.42 129.52 16.42L129.52 16.42L129.52 16.42Q129.80 16.42 129.97 16.58L129.97 16.58L129.97 16.58Q130.13 16.74 130.45 17.21L130.45 17.21L130.45 17.21Q130.78 17.71 131.24 18.29L131.24 18.29L140.60 29.48L140.60 20.56L140.60 20.56Q140.60 18.54 140.03 17.69L140.03 17.69L140.03 17.69Q139.45 16.85 138.08 16.85L138.08 16.85L138.08 16.85Q138.01 16.85 138.01 16.63L138.01 16.63L138.01 16.63Q138.01 16.42 138.08 16.42L138.08 16.42L139.34 16.45L139.34 16.45Q140.35 16.52 140.93 16.52L140.93 16.52L140.93 16.52Q141.54 16.52 142.55 16.45L142.55 16.45L143.92 16.42ZM155.64 33.70L155.64 33.70Q153.12 33.70 151.14 32.51L151.14 32.51L151.14 32.51Q149.16 31.32 148.07 29.30L148.07 29.30L148.07 29.30Q146.97 27.29 146.97 24.91L146.97 24.91L146.97 24.91Q146.97 22.14 148.41 20.11L148.41 20.11L148.41 20.11Q149.85 18.07 152.10 17.03L152.10 17.03L152.10 17.03Q154.35 15.98 156.69 15.98L156.69 15.98L156.69 15.98Q159.21 15.98 161.15 17.23L161.15 17.23L161.15 17.23Q163.10 18.47 164.14 20.45L164.14 20.45L164.14 20.45Q165.18 22.43 165.18 24.59L165.18 24.59L165.18 24.59Q165.18 27 163.89 29.11L163.89 29.11L163.89 29.11Q162.59 31.21 160.41 32.45L160.41 32.45L160.41 32.45Q158.24 33.70 155.64 33.70L155.64 33.70ZM156.54 32.94L156.54 32.94Q159.10 32.94 160.63 30.96L160.63 30.96L160.63 30.96Q162.16 28.98 162.16 25.45L162.16 25.45L162.16 25.45Q162.16 23.08 161.37 21.10L161.37 21.10L161.37 21.10Q160.58 19.12 159.06 17.95L159.06 17.95L159.06 17.95Q157.55 16.78 155.46 16.78L155.46 16.78L155.46 16.78Q152.84 16.78 151.40 18.65L151.40 18.65L151.40 18.65Q149.96 20.52 149.96 23.94L149.96 23.94L149.96 23.94Q149.96 26.46 150.78 28.51L150.78 28.51L150.78 28.51Q151.61 30.56 153.11 31.75L153.11 31.75L153.11 31.75Q154.60 32.94 156.54 32.94L156.54 32.94ZM191.10 32.83L191.10 32.83Q191.17 32.83 191.17 33.05L191.17 33.05L191.17 33.05Q191.17 33.26 191.10 33.26L191.10 33.26L191.10 33.26Q190.09 33.26 189.51 33.23L189.51 33.23L187.39 33.19L184.94 33.23L184.94 33.23Q184.33 33.26 183.25 33.26L183.25 33.26L183.25 33.26Q183.18 33.26 183.18 33.05L183.18 33.05L183.18 33.05Q183.18 32.83 183.25 32.83L183.25 32.83L183.25 32.83Q184.47 32.83 185.07 32.63L185.07 32.63L185.07 32.63Q185.66 32.44 185.86 31.93L185.86 31.93L185.86 31.93Q186.06 31.43 185.98 30.35L185.98 30.35L185.52 18.50L179.50 33.01L179.50 33.01Q179.43 33.16 179.25 33.16L179.25 33.16L179.25 33.16Q179.04 33.16 178.96 33.01L178.96 33.01L172.05 19.51L171.80 29.12L171.80 29.12Q171.76 31.10 172.32 31.97L172.32 31.97L172.32 31.97Q172.88 32.83 174.25 32.83L174.25 32.83L174.25 32.83Q174.36 32.83 174.36 33.05L174.36 33.05L174.36 33.05Q174.36 33.26 174.25 33.26L174.25 33.26L174.25 33.26Q173.46 33.26 173.02 33.23L173.02 33.23L171.40 33.19L169.82 33.23L169.82 33.23Q169.35 33.26 168.49 33.26L168.49 33.26L168.49 33.26Q168.42 33.26 168.42 33.05L168.42 33.05L168.42 33.05Q168.42 32.83 168.49 32.83L168.49 32.83L168.49 32.83Q169.82 32.83 170.41 31.99L170.41 31.99L170.41 31.99Q171.01 31.14 171.08 29.12L171.08 29.12L171.37 18.32L171.37 18.32Q170.29 16.85 168.70 16.85L168.70 16.85L168.70 16.85Q168.60 16.85 168.60 16.63L168.60 16.63L168.60 16.63Q168.60 16.42 168.70 16.42L168.70 16.42L171.01 16.45L172.88 16.42L172.88 16.42Q173.35 16.42 173.65 16.76L173.65 16.76L173.65 16.76Q173.96 17.10 174.57 18.29L174.57 18.29L180.26 29.52L185.30 17.32L185.30 17.32Q185.44 16.92 185.75 16.67L185.75 16.67L185.75 16.67Q186.06 16.42 186.38 16.42L186.38 16.42L188.40 16.45L190.92 16.42L190.92 16.42Q190.99 16.42 190.99 16.63L190.99 16.63L190.99 16.63Q190.99 16.85 190.92 16.85L190.92 16.85L190.92 16.85Q189.40 16.85 188.76 17.33L188.76 17.33L188.76 17.33Q188.11 17.82 188.22 19.26L188.22 19.26L188.72 30.35L188.72 30.35Q188.79 31.46 188.95 31.97L188.95 31.97L188.95 31.97Q189.12 32.47 189.58 32.65L189.58 32.65L189.58 32.65Q190.05 32.83 191.10 32.83L191.10 32.83ZM199.84 30.35L199.84 30.35Q199.84 31.43 200.02 31.95L200.02 31.95L200.02 31.95Q200.20 32.47 200.72 32.65L200.72 32.65L200.72 32.65Q201.24 32.83 202.39 32.83L202.39 32.83L202.39 32.83Q202.50 32.83 202.50 33.05L202.50 33.05L202.50 33.05Q202.50 33.26 202.39 33.26L202.39 33.26L202.39 33.26Q201.35 33.26 200.77 33.23L200.77 33.23L198.47 33.19L196.24 33.23L196.24 33.23Q195.62 33.26 194.54 33.26L194.54 33.26L194.54 33.26Q194.47 33.26 194.47 33.05L194.47 33.05L194.47 33.05Q194.47 32.83 194.54 32.83L194.54 32.83L194.54 32.83Q195.70 32.83 196.24 32.65L196.24 32.65L196.24 32.65Q196.78 32.47 196.97 31.95L196.97 31.95L196.97 31.95Q197.17 31.43 197.17 30.35L197.17 30.35L197.17 19.33L197.17 19.33Q197.17 18.25 196.97 17.75L196.97 17.75L196.97 17.75Q196.78 17.24 196.24 17.05L196.24 17.05L196.24 17.05Q195.70 16.85 194.54 16.85L194.54 16.85L194.54 16.85Q194.47 16.85 194.47 16.63L194.47 16.63L194.47 16.63Q194.47 16.42 194.54 16.42L194.54 16.42L196.24 16.45L196.24 16.45Q197.60 16.52 198.47 16.52L198.47 16.52L198.47 16.52Q199.37 16.52 200.81 16.45L200.81 16.45L202.39 16.42L202.39 16.42Q202.50 16.42 202.50 16.63L202.50 16.63L202.50 16.63Q202.50 16.85 202.39 16.85L202.39 16.85L202.39 16.85Q201.28 16.85 200.75 17.06L200.75 17.06L200.75 17.06Q200.23 17.28 200.03 17.80L200.03 17.80L200.03 17.80Q199.84 18.32 199.84 19.40L199.84 19.40L199.84 30.35ZM215.96 15.98L215.96 15.98Q217.32 15.98 218.89 16.25L218.89 16.25L218.89 16.25Q220.46 16.52 221.43 17.03L221.43 17.03L221.43 17.03Q221.68 17.14 221.75 17.24L221.75 17.24L221.75 17.24Q221.82 17.35 221.86 17.64L221.86 17.64L222.15 21.35L222.15 21.35Q222.15 21.46 221.95 21.49L221.95 21.49L221.95 21.49Q221.75 21.53 221.72 21.38L221.72 21.38L221.72 21.38Q219.99 16.60 215.31 16.60L215.31 16.60L215.31 16.60Q213.47 16.60 212.09 17.57L212.09 17.57L212.09 17.57Q210.70 18.54 209.93 20.29L209.93 20.29L209.93 20.29Q209.15 22.03 209.15 24.23L209.15 24.23L209.15 24.23Q209.15 26.46 209.93 28.49L209.93 28.49L209.93 28.49Q210.70 30.53 212.30 31.82L212.30 31.82L212.30 31.82Q213.90 33.12 216.21 33.12L216.21 33.12L216.21 33.12Q218.30 33.12 219.74 31.93L219.74 31.93L219.74 31.93Q221.18 30.74 222.04 28.22L222.04 28.22L222.04 28.22Q222.08 28.08 222.27 28.12L222.27 28.12L222.27 28.12Q222.47 28.15 222.47 28.26L222.47 28.26L222.08 32.08L222.08 32.08Q222.04 32.36 221.97 32.47L221.97 32.47L221.97 32.47Q221.90 32.58 221.57 32.72L221.57 32.72L221.57 32.72Q218.80 33.70 215.81 33.70L215.81 33.70L215.81 33.70Q212.39 33.70 210.18 32.33L210.18 32.33L210.18 32.33Q207.96 30.96 206.99 28.91L206.99 28.91L206.99 28.91Q206.02 26.86 206.02 24.77L206.02 24.77L206.02 24.77Q206.02 22.28 207.32 20.29L207.32 20.29L207.32 20.29Q208.61 18.29 210.90 17.14L210.90 17.14L210.90 17.14Q213.18 15.98 215.96 15.98L215.96 15.98ZM241.46 13.72L241.46 30.20L241.46 30.20Q241.46 31.21 241.66 31.66L241.66 31.66L241.66 31.66Q241.86 32.11 242.40 32.27L242.40 32.27L242.40 32.27Q242.94 32.44 244.09 32.44L244.09 32.44L247.15 32.44L247.15 32.44Q249.42 32.44 250.91 31.09L250.91 31.09L250.91 31.09Q252.41 29.74 252.91 27.43L252.91 27.43L252.91 27.43Q252.91 27.32 253.11 27.34L253.11 27.34L253.11 27.34Q253.31 27.36 253.31 27.47L253.31 27.47L253.31 27.47Q252.98 30.64 252.98 32.72L252.98 32.72L252.98 32.72Q252.98 33.01 252.86 33.14L252.86 33.14L252.86 33.14Q252.73 33.26 252.44 33.26L252.44 33.26L235.67 33.26L235.67 33.26Q235.60 33.26 235.60 33.05L235.60 33.05L235.60 33.05Q235.60 32.83 235.67 32.83L235.67 32.83L235.67 32.83Q236.96 32.83 237.56 32.65L237.56 32.65L237.56 32.65Q238.15 32.47 238.37 31.95L238.37 31.95L238.37 31.95Q238.58 31.43 238.58 30.35L238.58 30.35L238.58 13.68L238.58 13.68Q238.58 12.60 238.37 12.10L238.37 12.10L238.37 12.10Q238.15 11.59 237.56 11.39L237.56 11.39L237.56 11.39Q236.96 11.20 235.67 11.20L235.67 11.20L235.67 11.20Q235.60 11.20 235.60 10.98L235.60 10.98L235.60 10.98Q235.60 10.76 235.67 10.76L235.67 10.76L237.47 10.80L237.47 10.80Q239.05 10.87 240.02 10.87L240.02 10.87L240.02 10.87Q241.00 10.87 242.58 10.80L242.58 10.80L244.38 10.76L244.38 10.76Q244.45 10.76 244.45 10.98L244.45 10.98L244.45 10.98Q244.45 11.20 244.38 11.20L244.38 11.20L244.38 11.20Q243.12 11.20 242.51 11.39L242.51 11.39L242.51 11.39Q241.90 11.59 241.68 12.11L241.68 12.11L241.68 12.11Q241.46 12.64 241.46 13.72L241.46 13.72ZM261.80 13.72L261.80 30.20L261.80 30.20Q261.80 31.21 261.99 31.66L261.99 31.66L261.99 31.66Q262.19 32.11 262.73 32.27L262.73 32.27L262.73 32.27Q263.27 32.44 264.42 32.44L264.42 32.44L267.48 32.44L267.48 32.44Q269.75 32.44 271.25 31.09L271.25 31.09L271.25 31.09Q272.74 29.74 273.24 27.43L273.24 27.43L273.24 27.43Q273.24 27.32 273.44 27.34L273.44 27.34L273.44 27.34Q273.64 27.36 273.64 27.47L273.64 27.47L273.64 27.47Q273.32 30.64 273.32 32.72L273.32 32.72L273.32 32.72Q273.32 33.01 273.19 33.14L273.19 33.14L273.19 33.14Q273.06 33.26 272.78 33.26L272.78 33.26L256 33.26L256 33.26Q255.93 33.26 255.93 33.05L255.93 33.05L255.93 33.05Q255.93 32.83 256 32.83L256 32.83L256 32.83Q257.30 32.83 257.89 32.65L257.89 32.65L257.89 32.65Q258.48 32.47 258.70 31.95L258.70 31.95L258.70 31.95Q258.92 31.43 258.92 30.35L258.92 30.35L258.92 13.68L258.92 13.68Q258.92 12.60 258.70 12.10L258.70 12.10L258.70 12.10Q258.48 11.59 257.89 11.39L257.89 11.39L257.89 11.39Q257.30 11.20 256 11.20L256 11.20L256 11.20Q255.93 11.20 255.93 10.98L255.93 10.98L255.93 10.98Q255.93 10.76 256 10.76L256 10.76L257.80 10.80L257.80 10.80Q259.38 10.87 260.36 10.87L260.36 10.87L260.36 10.87Q261.33 10.87 262.91 10.80L262.91 10.80L264.71 10.76L264.71 10.76Q264.78 10.76 264.78 10.98L264.78 10.98L264.78 10.98Q264.78 11.20 264.71 11.20L264.71 11.20L264.71 11.20Q263.45 11.20 262.84 11.39L262.84 11.39L262.84 11.39Q262.23 11.59 262.01 12.11L262.01 12.11L262.01 12.11Q261.80 12.64 261.80 13.72L261.80 13.72ZM290.16 10.37L290.16 10.37Q291.81 10.37 293.58 10.67L293.58 10.67L293.58 10.67Q295.34 10.98 296.38 11.52L296.38 11.52L296.38 11.52Q296.67 11.66 296.76 11.83L296.76 11.83L296.76 11.83Q296.85 11.99 296.92 12.38L296.92 12.38L297.32 16.74L297.32 16.74Q297.32 16.85 297.14 16.87L297.14 16.87L297.14 16.87Q296.96 16.88 296.92 16.78L296.92 16.78L296.92 16.78Q295.99 13.97 293.86 12.58L293.86 12.58L293.86 12.58Q291.74 11.20 288.75 11.20L288.75 11.20L288.75 11.20Q286.12 11.20 284.18 12.40L284.18 12.40L284.18 12.40Q282.24 13.61 281.21 15.80L281.21 15.80L281.21 15.80Q280.18 18 280.18 20.88L280.18 20.88L280.18 20.88Q280.18 24.23 281.48 27.04L281.48 27.04L281.48 27.04Q282.78 29.84 284.99 31.48L284.99 31.48L284.99 31.48Q287.20 33.12 289.83 33.12L289.83 33.12L289.83 33.12Q295.02 33.12 297.25 27.18L297.25 27.18L297.25 27.18Q297.25 27.07 297.39 27.07L297.39 27.07L297.39 27.07Q297.50 27.07 297.59 27.11L297.59 27.11L297.59 27.11Q297.68 27.14 297.68 27.22L297.68 27.22L297.18 31.57L297.18 31.57Q297.10 32.00 297.01 32.13L297.01 32.13L297.01 32.13Q296.92 32.26 296.60 32.40L296.60 32.40L296.60 32.40Q293.29 33.70 289.83 33.70L289.83 33.70L289.83 33.70Q285.48 33.70 282.56 31.95L282.56 31.95L282.56 31.95Q279.64 30.20 278.28 27.50L278.28 27.50L278.28 27.50Q276.91 24.80 276.91 21.85L276.91 21.85L276.91 21.85Q276.91 18.50 278.76 15.89L278.76 15.89L278.76 15.89Q280.62 13.28 283.66 11.83L283.66 11.83L283.66 11.83Q286.70 10.37 290.16 10.37L290.16 10.37Z" transform="rotate(0 149.71999144554138 22.07450008392334)"></path><defs id="SvgjsDefs1016"></defs></svg></g></svg>